<?xml version="1.0" encoding="utf-8"?>
<!-- Generator: Adobe Illustrator 16.0.3, SVG Export Plug-In . SVG Version: 6.00 Build 0)  -->
<!DOCTYPE svg PUBLIC "-//W3C//DTD SVG 1.1//EN" "http://www.w3.org/Graphics/SVG/1.1/DTD/svg11.dtd">
<svg version="1.1" id="Layer_1" xmlns="http://www.w3.org/2000/svg" xmlns:xlink="http://www.w3.org/1999/xlink" x="0px" y="0px"
	 width="70px" height="50px" viewBox="0 0 70 50" enable-background="new 0 0 70 50" xml:space="preserve">
<linearGradient id="SVGID_1_" gradientUnits="userSpaceOnUse" x1="34.9468" y1="0.0454" x2="35.1001" y2="49.9219">
	<stop  offset="0" style="stop-color:#CBCCCE"/>
	<stop  offset="0.5925" style="stop-color:#AEB0B3"/>
	<stop  offset="1" style="stop-color:#9FA1A4"/>
</linearGradient>
<linearGradient id="SVGID_2_" gradientUnits="userSpaceOnUse" x1="4.875" y1="25.0884" x2="65.125" y2="25.0884">
	<stop  offset="0" style="stop-color:#FFFFFF"/>
	<stop  offset="1" style="stop-color:#000000"/>
</linearGradient>
<path fill="url(#SVGID_1_)" stroke="url(#SVGID_2_)" stroke-width="0.25" stroke-miterlimit="10" d="M65,30.967
	C65,32.09,64.14,33,63.077,33H41.764l-6.734,15L28.11,33H6.923C5.861,33,5,32.09,5,30.967V4.032C5,2.91,5.861,2,6.923,2h56.154
	C64.14,2,65,2.91,65,4.032V30.967z"/>
<text transform="matrix(1 0 0 1 26 12.2036)" display="none"><tspan x="0" y="0" display="inline" fill="#F1F2F2" font-family="'LetterGothicStd-Bold'" font-size="10">PFA</tspan><tspan x="-12" y="12" display="inline" fill="#F1F2F2" font-family="'LetterGothicStd-Bold'" font-size="10">IRELAND</tspan><tspan x="-3.6" y="19.2" display="inline" fill="#414042" font-family="'LetterGothicStd-Bold'" font-size="6">OFFICES</tspan></text>
<text transform="matrix(1 0 0 1 11.0005 15.1768)"><tspan x="0" y="0" font-family="'LetterGothicStd-Bold'" font-size="10">YOU ARE </tspan><tspan x="12" y="12" font-family="'LetterGothicStd-Bold'" font-size="10">HERE</tspan></text>
</svg>
